<svg width="178" height="157" viewBox="0 0 178 157" fill="none" xmlns="http://www.w3.org/2000/svg">
<path d="M0 68H49C71.0914 68 89 85.9086 89 108V117C89 139.091 71.0914 157 49 157H40C17.9086 157 0 139.091 0 117V68Z" fill="#FADC23"/>
<path d="M5 38.5C5 19.9985 19.9985 5 38.5 5C57.0015 5 72 19.9985 72 38.5C72 57.0015 57.0015 72 38.5 72H5V38.5Z" stroke="black" stroke-width="10"/>
<path d="M94 46C94 34.4598 102.145 24.8219 113 22.5216V128C113 139.54 104.855 149.178 94 151.478V46Z" stroke="black" stroke-width="10"/>
<path d="M89 44.5C89 19.9233 108.923 0 133.5 0C158.077 0 178 19.9233 178 44.5C178 69.0767 158.077 89 133.5 89H89V44.5Z" fill="#00A3FF"/>
</svg>
